HIERARCHY
ROOT Hips
{
	OFFSET 0.000000 97.167313 0.000000
	CHANNELS 6 Xposition Yposition Zposition Xrotation Yrotation Zrotation
	JOINT Spine
	{
		OFFSET 0.000000 13.784798 0.064400
		CHANNELS 3 Xrotation Yrotation Zrotation
		JOINT Spine1
		{
			OFFSET 0.000000 12.037903 0.404700
			CHANNELS 3 Xrotation Yrotation Zrotation
			JOINT Spine2
			{
				OFFSET 0.000000 17.795601 0.420200
				CHANNELS 3 Xrotation Yrotation Zrotation
				JOINT Neck
				{
					OFFSET 0.000000 39.131302 11.954600
					CHANNELS 3 Xrotation Yrotation Zrotation
					JOINT Head
					{
						OFFSET 0.000000 14.456192 15.627699
						CHANNELS 3 Xrotation Yrotation Zrotation
						JOINT HeadTop_End
						{
							OFFSET 0.000000 15.703506 7.603401
							CHANNELS 3 Xrotation Yrotation Zrotation
							End Site
							{
								OFFSET 0.000000 17.447403 0.000000
							}
						}
					}
				}
				JOINT LeftShoulder
				{
					OFFSET 17.399500 24.608795 1.168800
					CHANNELS 3 Xrotation Yrotation Zrotation
					JOINT LeftArm
					{
						OFFSET 18.980635 5.765305 1.818600
						CHANNELS 3 Xrotation Yrotation Zrotation
						JOINT LeftForeArm
						{
							OFFSET 49.290169 0.000000 0.000000
							CHANNELS 3 Xrotation Yrotation Zrotation
							JOINT LeftHand
							{
								OFFSET 31.562012 0.000000 0.000000
								CHANNELS 3 Xrotation Yrotation Zrotation
								JOINT LeftHandThumb1
								{
									OFFSET 6.133995 -4.388519 7.076070
									CHANNELS 3 Xrotation Yrotation Zrotation
									JOINT LeftHandThumb2
									{
										OFFSET 6.037666 -3.485840 3.485847
										CHANNELS 3 Xrotation Yrotation Zrotation
										JOINT LeftHandThumb3
										{
											OFFSET 6.496506 -3.750763 3.750761
											CHANNELS 3 Xrotation Yrotation Zrotation
											JOINT LeftHandThumb4
											{
												OFFSET 5.616882 -3.242905 3.242910
												CHANNELS 3 Xrotation Yrotation Zrotation
												End Site
												{
													OFFSET -1.254608 7.132141 0.375429
												}
											}
										}
									}
								}
								JOINT LeftHandPinky1
								{
									OFFSET 18.920792 -0.453171 -11.426712
									CHANNELS 3 Xrotation Yrotation Zrotation
									JOINT LeftHandPinky2
									{
										OFFSET 4.919586 0.000000 0.000000
										CHANNELS 3 Xrotation Yrotation Zrotation
										JOINT LeftHandPinky3
										{
											OFFSET 5.233047 0.000000 0.000000
											CHANNELS 3 Xrotation Yrotation Zrotation
											JOINT LeftHandPinky4
											{
												OFFSET 5.571716 0.000000 0.000000
												CHANNELS 3 Xrotation Yrotation Zrotation
												End Site
												{
													OFFSET -3.459808 4.342407 -0.466164
												}
											}
										}
									}
								}
								JOINT LeftHandRing1
								{
									OFFSET 22.726120 -0.094986 -6.500475
									CHANNELS 3 Xrotation Yrotation Zrotation
									JOINT LeftHandRing2
									{
										OFFSET 6.408615 0.000000 0.000000
										CHANNELS 3 Xrotation Yrotation Zrotation
										JOINT LeftHandRing3
										{
											OFFSET 6.150223 0.000000 0.000000
											CHANNELS 3 Xrotation Yrotation Zrotation
											JOINT LeftHandRing4
											{
												OFFSET 6.145386 0.000000 0.000000
												CHANNELS 3 Xrotation Yrotation Zrotation
												End Site
												{
													OFFSET -3.671402 4.923981 -0.202372
												}
											}
										}
									}
								}
								JOINT LeftHandMiddle1
								{
									OFFSET 23.373947 0.000000 0.000001
									CHANNELS 3 Xrotation Yrotation Zrotation
									JOINT LeftHandMiddle2
									{
										OFFSET 6.996567 0.000000 0.000000
										CHANNELS 3 Xrotation Yrotation Zrotation
										JOINT LeftHandMiddle3
										{
											OFFSET 7.015945 0.000000 0.000000
											CHANNELS 3 Xrotation Yrotation Zrotation
											JOINT LeftHandMiddle4
											{
												OFFSET 7.721573 0.000000 0.000000
												CHANNELS 3 Xrotation Yrotation Zrotation
												End Site
												{
													OFFSET -4.651108 6.158463 0.251582
												}
											}
										}
									}
								}
								JOINT LeftHandIndex1
								{
									OFFSET 21.310577 -0.490082 6.209344
									CHANNELS 3 Xrotation Yrotation Zrotation
									JOINT LeftHandIndex2
									{
										OFFSET 7.536453 0.000000 0.000000
										CHANNELS 3 Xrotation Yrotation Zrotation
										JOINT LeftHandIndex3
										{
											OFFSET 7.512344 0.000000 0.000000
											CHANNELS 3 Xrotation Yrotation Zrotation
											JOINT LeftHandIndex4
											{
												OFFSET 10.212402 0.000000 0.000001
												CHANNELS 3 Xrotation Yrotation Zrotation
												End Site
												{
													OFFSET -5.180801 8.690506 1.388433
												}
											}
										}
									}
								}
							}
						}
					}
				}
				JOINT RightShoulder
				{
					OFFSET -17.399500 24.608795 1.168800
					CHANNELS 3 Xrotation Yrotation Zrotation
					JOINT RightArm
					{
						OFFSET -18.980635 5.765305 1.818600
						CHANNELS 3 Xrotation Yrotation Zrotation
						JOINT RightForeArm
						{
							OFFSET -49.290169 0.000000 0.000000
							CHANNELS 3 Xrotation Yrotation Zrotation
							JOINT RightHand
							{
								OFFSET -31.562012 0.000000 0.000000
								CHANNELS 3 Xrotation Yrotation Zrotation
								JOINT RightHandThumb1
								{
									OFFSET -6.133995 -4.388519 7.076070
									CHANNELS 3 Xrotation Yrotation Zrotation
									JOINT RightHandThumb2
									{
										OFFSET -6.037666 -3.485840 3.485847
										CHANNELS 3 Xrotation Yrotation Zrotation
										JOINT RightHandThumb3
										{
											OFFSET -6.496506 -3.750763 3.750761
											CHANNELS 3 Xrotation Yrotation Zrotation
											JOINT RightHandThumb4
											{
												OFFSET -5.616882 -3.242905 3.242910
												CHANNELS 3 Xrotation Yrotation Zrotation
												End Site
												{
													OFFSET 1.254608 7.132141 0.375429
												}
											}
										}
									}
								}
								JOINT RightHandIndex1
								{
									OFFSET -21.310577 -0.490082 6.209344
									CHANNELS 3 Xrotation Yrotation Zrotation
									JOINT RightHandIndex2
									{
										OFFSET -7.536453 0.000000 0.000000
										CHANNELS 3 Xrotation Yrotation Zrotation
										JOINT RightHandIndex3
										{
											OFFSET -7.512344 0.000000 0.000000
											CHANNELS 3 Xrotation Yrotation Zrotation
											JOINT RightHandIndex4
											{
												OFFSET -10.212402 0.000000 0.000001
												CHANNELS 3 Xrotation Yrotation Zrotation
												End Site
												{
													OFFSET 5.180801 8.690506 1.388433
												}
											}
										}
									}
								}
								JOINT RightHandMiddle1
								{
									OFFSET -23.373947 0.000000 0.000001
									CHANNELS 3 Xrotation Yrotation Zrotation
									JOINT RightHandMiddle2
									{
										OFFSET -6.996567 0.000000 0.000000
										CHANNELS 3 Xrotation Yrotation Zrotation
										JOINT RightHandMiddle3
										{
											OFFSET -7.015945 0.000000 0.000000
											CHANNELS 3 Xrotation Yrotation Zrotation
											JOINT RightHandMiddle4
											{
												OFFSET -7.721573 0.000000 0.000000
												CHANNELS 3 Xrotation Yrotation Zrotation
												End Site
												{
													OFFSET 4.651108 6.158463 0.251582
												}
											}
										}
									}
								}
								JOINT RightHandRing1
								{
									OFFSET -22.726120 -0.094986 -6.500475
									CHANNELS 3 Xrotation Yrotation Zrotation
									JOINT RightHandRing2
									{
										OFFSET -6.408615 0.000000 0.000000
										CHANNELS 3 Xrotation Yrotation Zrotation
										JOINT RightHandRing3
										{
											OFFSET -6.150223 0.000000 0.000000
											CHANNELS 3 Xrotation Yrotation Zrotation
											JOINT RightHandRing4
											{
												OFFSET -6.145386 0.000000 0.000000
												CHANNELS 3 Xrotation Yrotation Zrotation
												End Site
												{
													OFFSET 3.671402 4.923981 -0.202372
												}
											}
										}
									}
								}
								JOINT RightHandPinky1
								{
									OFFSET -18.920792 -0.453171 -11.426712
									CHANNELS 3 Xrotation Yrotation Zrotation
									JOINT RightHandPinky2
									{
										OFFSET -4.919586 0.000000 0.000000
										CHANNELS 3 Xrotation Yrotation Zrotation
										JOINT RightHandPinky3
										{
											OFFSET -5.233047 0.000000 0.000000
											CHANNELS 3 Xrotation Yrotation Zrotation
											JOINT RightHandPinky4
											{
												OFFSET -5.571716 0.000000 0.000000
												CHANNELS 3 Xrotation Yrotation Zrotation
												End Site
												{
													OFFSET 3.459808 4.342407 -0.466164
												}
											}
										}
									}
								}
							}
						}
					}
				}
			}
		}
	}
	JOINT LeftUpLeg
	{
		OFFSET 19.899099 -7.885101 -3.429500
		CHANNELS 3 Xrotation Yrotation Zrotation
		JOINT LeftLeg
		{
			OFFSET 1.745560 -36.997807 10.304700
			CHANNELS 3 Xrotation Yrotation Zrotation
			JOINT LeftFoot
			{
				OFFSET -1.745558 -29.803308 -13.615400
				CHANNELS 3 Xrotation Yrotation Zrotation
				JOINT LeftToeBase
				{
					OFFSET 1.181900 -18.539904 15.226099
					CHANNELS 3 Xrotation Yrotation Zrotation
					JOINT LeftToe_End
					{
						OFFSET -0.863701 1.402801 16.534700
						CHANNELS 3 Xrotation Yrotation Zrotation
						End Site
						{
							OFFSET 0.000000 16.616566 0.000000
						}
					}
				}
			}
		}
	}
	JOINT RightUpLeg
	{
		OFFSET -19.899099 -7.885101 -3.429500
		CHANNELS 3 Xrotation Yrotation Zrotation
		JOINT RightLeg
		{
			OFFSET -1.745560 -36.997807 10.304700
			CHANNELS 3 Xrotation Yrotation Zrotation
			JOINT RightFoot
			{
				OFFSET 1.745558 -29.803308 -13.615400
				CHANNELS 3 Xrotation Yrotation Zrotation
				JOINT RightToeBase
				{
					OFFSET -1.181900 -18.539904 15.226099
					CHANNELS 3 Xrotation Yrotation Zrotation
					JOINT RightToe_End
					{
						OFFSET 0.863701 1.402801 16.534700
						CHANNELS 3 Xrotation Yrotation Zrotation
						End Site
						{
							OFFSET 0.000000 16.616566 0.000000
						}
					}
				}
			}
		}
	}
}
MOTION
Frames: 5
Frame Time: 0.033333
-1.463428 78.884880 0.375114 9.549102 -61.629255 10.130343 15.067047 -0.307178 -4.263302 5.872723 0.571209 -2.801463 5.868550 0.648913 -2.855424 -3.634976 1.436804 3.746775 -20.006225 54.836375 2.411128 0.000000 0.000000 -0.000001 1.828198 -3.192722 -12.271575 -39.385357 26.349374 -34.911423 0.428801 -46.808830 0.423752 -10.316368 -0.130580 0.363180 40.109910 -15.297197 -0.360531 5.639900 28.097815 11.338779 1.088498 40.896205 22.734073 -0.000001 -0.000001 0.000002 -17.946927 14.755060 -51.485867 8.868438 8.667023 -84.812030 4.540489 8.852589 -59.153004 0.000000 -0.000007 -0.000007 -9.042473 10.045690 -60.766192 8.524134 9.508820 -66.892947 6.576571 9.896767 -70.385113 -0.000000 0.000002 0.000005 -2.345541 4.688801 -62.655224 8.754090 9.897129 -87.051232 1.995374 4.929257 -37.483358 -0.000002 -0.000003 0.000006 6.882224 2.840052 -61.140438 8.248125 7.640000 -89.897925 2.146128 8.173355 -41.827771 0.000001 0.000001 0.000002 0.631517 7.257333 8.703796 7.935526 -9.679093 53.417127 -22.871578 36.191158 17.967465 -27.376161 10.434448 -17.812792 -2.346183 -6.100501 10.731427 2.364051 -23.806276 -8.771094 -5.012445 13.984844 5.861491 0.000000 -0.000001 -0.000000 -0.054787 0.532094 0.738704 0.019743 -0.087329 5.078556 -0.003984 -2.004378 -2.834014 -0.000001 -0.000003 -0.000002 0.348183 -5.918518 2.583799 1.432650 -4.204243 24.052141 0.133925 1.746499 -5.752999 0.000001 -0.000001 -0.000004 1.205787 -11.756066 4.154755 1.794878 -3.771859 26.865453 1.319732 -3.995405 19.486921 -0.000001 -0.000001 -0.000000 2.126180 -19.166868 11.319939 3.354749 -2.122270 18.828569 6.367031 -5.015710 28.949204 0.000002 -0.000000 -0.000001 -37.385659 8.996845 29.821535 35.082840 -10.554715 -0.716608 -3.625978 0.155140 -20.668228 -1.833356 -0.000506 -0.000243 0.000000 0.000002 0.000000 -26.948858 -18.878283 -40.111133 34.581917 9.750181 -0.975156 -14.070115 -3.888729 27.372675 -0.005421 -0.000396 0.004827 -0.000000 0.000000 0.000000 
-1.548347 78.885437 1.432979 12.431651 -65.071069 12.117375 14.878742 0.286710 -4.342999 5.763970 0.476908 -2.601121 5.757301 0.550505 -2.649558 -3.709672 0.928556 3.562180 -21.604170 53.898904 3.923329 -0.000001 0.000000 -0.000000 1.796532 -3.140527 -12.247155 -39.034739 26.643936 -35.291126 -0.044552 -45.793140 0.042278 -10.783214 -1.079580 0.737160 40.109907 -15.297194 -0.360532 5.639896 28.097812 11.338784 1.088502 40.896202 22.734066 -0.000002 0.000005 -0.000002 -17.946928 14.755058 -51.485870 8.868440 8.667026 -84.812037 4.540486 8.852589 -59.153004 0.000005 -0.000004 -0.000001 -9.042475 10.045693 -60.766192 8.524135 9.508818 -66.892953 6.576572 9.896772 -70.385113 -0.000001 0.000002 0.000002 -2.345541 4.688800 -62.655224 8.754093 9.897123 -87.051232 1.995378 4.929257 -37.483364 -0.000001 -0.000002 0.000008 6.882222 2.840051 -61.140445 8.248126 7.640001 -89.897925 2.146126 8.173349 -41.827768 -0.000002 0.000001 -0.000001 0.703917 7.088043 8.898303 6.423830 -7.976378 53.427936 -22.483757 36.707943 17.768240 -27.061367 10.175388 -16.897051 -2.423469 -6.209622 10.464111 2.396534 -23.961465 -8.833159 -4.955436 13.834990 5.770255 0.000000 -0.000002 0.000004 -0.055895 0.506062 0.901707 0.042712 -0.286020 6.454471 -0.009033 -2.193593 -1.575997 -0.000000 -0.000003 0.000003 0.350633 -6.058049 3.445294 1.490371 -4.331013 24.917582 0.116705 1.611988 -4.930620 0.000001 0.000002 -0.000004 1.306735 -11.768167 5.042129 1.866039 -3.895357 27.730973 1.375223 -4.133607 20.350516 0.000001 0.000000 -0.000007 2.149726 -19.313366 12.187522 3.398625 -2.261383 19.690464 6.427412 -5.138743 29.816528 0.000001 -0.000001 0.000000 -36.827448 10.703794 31.529099 37.303365 -11.095447 -0.855085 -6.848065 2.259198 -20.061372 -1.833370 -0.000544 -0.000251 0.000000 0.000002 0.000000 -29.070337 -16.666730 -38.729816 33.313397 12.731382 -0.780238 -10.984806 -3.902168 26.606790 -1.301450 0.045382 0.008434 0.000000 -0.000000 -0.000000 
-1.485793 79.360397 2.610146 16.812654 -67.716954 15.344351 14.678145 0.906440 -4.362179 5.652385 0.369173 -2.395354 5.642830 0.438432 -2.437623 -3.781240 -0.293275 3.441307 -23.206153 52.018062 5.389422 -0.000000 -0.000000 -0.000001 1.779615 -3.025332 -12.193942 -38.652645 27.020932 -35.707799 -0.557413 -44.033000 -0.346121 -11.199710 -2.070736 1.086834 40.109910 -15.297196 -0.360531 5.639893 28.097814 11.338783 1.088496 40.896205 22.734075 -0.000002 -0.000001 0.000001 -17.946927 14.755060 -51.485864 8.868438 8.667027 -84.812030 4.540489 8.852587 -59.153004 -0.000001 -0.000002 -0.000004 -9.042475 10.045690 -60.766185 8.524130 9.508819 -66.892947 6.576566 9.896772 -70.385120 -0.000002 -0.000002 -0.000002 -2.345541 4.688804 -62.655217 8.754095 9.897125 -87.051232 1.995377 4.929256 -37.483361 -0.000001 -0.000001 0.000009 6.882222 2.840054 -61.140438 8.248121 7.639999 -89.897918 2.146133 8.173355 -41.827771 0.000004 0.000001 -0.000003 0.771161 6.919583 9.113998 4.861753 -6.095193 53.625133 -22.095807 37.247542 17.481512 -26.701515 9.983612 -15.706995 -2.507990 -6.328233 10.171116 2.429126 -24.140400 -8.889314 -4.890383 13.673059 5.668118 0.000001 -0.000001 -0.000001 -0.056922 0.477799 1.079909 0.073726 -0.502567 7.959745 -0.009149 -2.400545 -0.199695 -0.000000 -0.000001 -0.000003 0.357613 -6.211066 4.387969 1.555974 -4.468729 25.864671 0.098142 1.464997 -4.031409 0.000000 0.000000 -0.000004 1.417718 -11.779924 6.012860 1.948329 -4.033314 28.677369 1.438421 -4.283641 21.295545 0.000000 0.000000 -0.000005 2.183250 -19.471686 13.139214 3.449661 -2.412737 20.633484 6.497081 -5.272404 30.765634 0.000001 -0.000002 0.000002 -38.292540 14.497770 33.409351 38.432344 -13.674761 -0.967349 -8.919109 3.677875 -17.870603 -1.833353 -0.000473 -0.000266 -0.000000 0.000000 0.000000 -28.823634 -13.633280 -37.041741 29.969770 10.090011 -0.302639 -7.410155 -1.331855 28.282092 -2.618333 0.079982 -0.002984 -0.000000 0.000000 0.000000 
-1.275313 80.180847 3.820257 22.823554 -70.180508 20.057583 14.482837 1.506738 -4.178774 5.542800 0.251441 -2.190638 5.530625 0.315909 -2.227351 -3.844135 -1.816091 3.443857 -24.587475 49.725051 6.690680 -0.000000 -0.000001 -0.000000 1.774261 -2.880235 -12.122740 -38.245211 27.482282 -36.128975 -1.078328 -41.703629 -0.710421 -11.526655 -3.033112 1.416882 40.109907 -15.297192 -0.360529 5.639896 28.097817 11.338781 1.088500 40.896202 22.734073 -0.000001 -0.000000 -0.000001 -17.946930 14.755058 -51.485867 8.868441 8.667027 -84.812030 4.540488 8.852594 -59.153004 0.000002 -0.000004 -0.000004 -9.042475 10.045688 -60.766185 8.524130 9.508825 -66.892947 6.576571 9.896770 -70.385113 -0.000003 0.000001 0.000002 -2.345538 4.688799 -62.655224 8.754086 9.897128 -87.051239 1.995380 4.929255 -37.483361 -0.000001 -0.000003 0.000004 6.882223 2.840052 -61.140438 8.248124 7.640003 -89.897918 2.146132 8.173353 -41.827768 -0.000000 0.000001 -0.000001 0.831789 6.788308 9.324206 3.351533 -4.240976 54.025837 -21.727363 37.814898 17.143022 -26.317298 9.861143 -14.300393 -2.597970 -6.453849 9.857883 2.463659 -24.331311 -8.949145 -4.821441 13.500197 5.559555 -0.000000 0.000000 -0.000003 -0.055201 0.447795 1.269991 0.109504 -0.733002 9.565466 -0.006864 -2.621289 1.268499 0.000000 -0.000001 -0.000002 0.371755 -6.374527 5.394241 1.628709 -4.614260 26.875321 0.088777 1.307100 -3.072145 -0.000000 -0.000001 -0.000002 1.536718 -11.790722 7.048455 2.034859 -4.181082 29.687106 1.508794 -4.442476 22.304019 -0.000001 -0.000000 0.000000 2.222775 -19.639487 14.155728 3.507745 -2.573427 21.639667 6.575429 -5.413609 31.778370 -0.000002 -0.000001 -0.000001 -40.091021 18.435866 35.749770 38.701904 -14.437393 -1.012042 -10.375893 3.032977 -16.279879 -1.833352 -0.000545 -0.000254 -0.000000 -0.000001 0.000000 -28.030282 -10.229813 -35.405942 26.740609 5.370039 0.842406 -1.894697 0.440347 29.679750 -4.019079 0.095352 -0.188114 0.000000 -0.000000 0.000000 
-0.879516 81.031868 4.977077 29.878020 -72.192586 25.826240 14.312323 2.026843 -3.783416 5.440541 0.127315 -1.992481 5.426137 0.186731 -2.025261 -3.843648 -3.677767 3.536149 -25.761131 47.010259 7.784071 0.000000 -0.000000 -0.000000 1.777255 -2.738409 -12.044512 -37.805579 28.017550 -36.533439 -1.598129 -39.419101 -1.035248 -11.733824 -3.907506 1.740410 40.109917 -15.297199 -0.360530 5.639894 28.097817 11.338777 1.088495 40.896208 22.734068 0.000001 0.000004 -0.000001 -17.946923 14.755056 -51.485864 8.868436 8.667023 -84.812037 4.540489 8.852593 -59.153004 -0.000000 0.000004 -0.000002 -9.042473 10.045686 -60.766185 8.524135 9.508825 -66.892947 6.576565 9.896777 -70.385120 -0.000002 -0.000002 0.000005 -2.345537 4.688797 -62.655217 8.754091 9.897128 -87.051232 1.995376 4.929256 -37.483361 0.000001 -0.000001 0.000004 6.882224 2.840051 -61.140438 8.248123 7.640000 -89.897925 2.146129 8.173352 -41.827768 0.000001 0.000001 0.000001 0.885187 6.708274 9.502802 1.973369 -2.618351 54.606054 -21.398332 38.401618 16.783899 -25.925902 9.807161 -12.738697 -2.691841 -6.584212 9.529922 2.499553 -24.530863 -9.011606 -4.749805 13.319370 5.446401 -0.000001 -0.000001 0.000001 -0.050708 0.416536 1.468362 0.153749 -0.972659 11.243267 0.001617 -2.851676 2.802623 -0.000002 -0.000003 -0.000001 0.389678 -6.545668 6.445700 1.707543 -4.764825 27.931598 0.081838 1.141993 -2.070057 0.000000 0.000001 -0.000004 1.661669 -11.800088 8.130402 2.124420 -4.336045 30.742019 1.585428 -4.606906 23.358006 -0.000000 0.000001 -0.000001 2.268254 -19.813771 15.219272 3.572340 -2.740239 22.691072 6.661708 -5.559590 32.836835 -0.000000 -0.000000 0.000002 -41.525095 21.178492 37.292211 38.787278 -15.374566 -1.053041 -11.597267 3.729276 -14.729271 -1.833363 -0.000501 -0.000248 -0.000000 0.000004 0.000000 -27.402557 -7.615558 -32.994742 24.141773 4.609066 1.893635 4.169340 -3.562279 29.896045 -5.977624 -0.131696 -0.004939 0.000000 0.000000 -0.000000 
